<?xml version="1.0" ?><svg xmlns="http://www.w3.org/2000/svg" id="Warmth" viewBox="0 0 64 64"><defs><style>
      .cls-1 {
        stroke-width: 0px;
      }
    </style></defs><path class="cls-1" d="M59,34h-9.86c.91-2.7,1.26-6.11.26-10.24-.08-.34-.34-.62-.69-.72-.34-.1-.71-.01-.97.23,0,.01-.48.46-1.42,1.03-.17-4.47-2.36-15.8-19.75-18.29-.34-.05-.68.08-.9.34-.22.26-.3.62-.19.95.02.09,2.61,8.59-1.21,15-.49-.76-1.03-1.91-1.03-3.3,0-.36-.19-.69-.5-.87-.31-.17-.69-.17-1,0-.23.14-5.74,3.4-5.74,12.87,0,1.03.11,2.03.32,3H5c-1.65,0-3,1.35-3,3v4c0,1.65,1.35,3,3,3h10.93l-6.04,6.05c-.57.56-.89,1.31-.89,2.11s.31,1.56.88,2.14l2.82,2.82c.57.57,1.33.88,2.13.88h.01c.8,0,1.55-.32,2.11-.88l11.46-11.45c1,.2,2.04.31,3.11.32.04,0,.07.01.11.01h.04c1.29,0,2.58-.15,3.85-.41l11.53,11.52c.56.57,1.31.89,2.11.89h.01c.8,0,1.56-.31,2.13-.88l2.82-2.82c.57-.58.88-1.34.88-2.14s-.32-1.55-.88-2.11l-6.05-6.05h10.93c1.65,0,3-1.35,3-3v-4c0-1.65-1.35-3-3-3ZM15.53,55.71c-.19.19-.44.29-.7.29s-.52-.1-.71-.3l-2.82-2.82c-.2-.19-.3-.45-.3-.71s.1-.51.3-.7l7.46-7.47h5.12c.74.41,1.52.75,2.32,1.04l-10.67,10.67ZM37.16,29.49c-.17.6-.61,1.64-1.16,2.35-.07-1.93-.72-4.96-3.71-7.59-.33-.3-.81-.31-1.19-.07s-.54.71-.41,1.14c0,.02.62,2.3-3.96,5.53-3.09,2.18-4.47,6.17-3.35,9.72.12.37.27.71.43,1.05-3.51-2.35-5.81-6.23-5.81-10.62,0-5.58,2.08-8.65,3.48-10.09.6,2.3,2.09,3.74,2.16,3.81.21.2.49.31.78.28.28-.03.54-.17.71-.4,4.29-5.73,3.33-13.19,2.64-16.37,18.12,3.32,16.6,17.04,16.53,17.64-.05.36.1.72.4.94.3.21.69.25,1.02.09.83-.4,1.52-.8,2.05-1.15.59,3.65-.01,6.59-1.01,8.84-.01.01-.01.02-.01.03-.55,1.22-1.2,2.24-1.85,3.07-1.64,2.07-3.85,3.71-6.32,4.81.4-.47.79-.97,1.11-1.52,1.38-2.36,2.37-6.31-.7-11.71-.2-.35-.59-.55-.99-.5-.4.05-.73.33-.84.72ZM52.71,51.47c.19.19.29.44.29.7s-.1.52-.3.71l-2.82,2.82c-.19.2-.44.3-.71.3s-.51-.1-.7-.3l-10.73-10.72c.81-.28,1.6-.6,2.37-.98h5.13l7.47,7.47Z"/></svg>